<?xml version="1.0" encoding="iso-8859-1"?>
<!-- Uploaded to: SVG Repo, www.svgrepo.com, Generator: SVG Repo Mixer Tools -->
<svg height="500px" width="500px" version="1.1" id="Capa_1" xmlns="http://www.w3.org/2000/svg" xmlns:xlink="http://www.w3.org/1999/xlink" 
	 viewBox="0 0 259.465 259.465" xml:space="preserve">
<g>
	<path style="fill:#fff;" d="M190.239,0l-38.46,38.46L43.276,146.969L0.003,259.465l112.496-43.268l116.195-116.195l0,0
		l30.769-30.769L190.239,0z M18.947,240.521l9.692-25.21l15.512,15.512L18.947,240.521z M106.44,206.869l-51.182,19.684
		l-22.349-22.349l17.09-44.448l24.851,24.851l7.691-7.691l-26.923-26.923l73.079-73.074l19.227,19.233l7.691-7.691l-19.227-19.233
		l7.691-7.691l19.233,19.233l7.691-7.691l-19.227-19.233l7.691-7.691l34.614,34.614l-96.146,96.152l7.691,7.691l96.152-96.152
		l11.536,11.536L106.44,206.869z M221.003,92.306l-53.841-53.841l23.078-23.078l53.841,53.841L221.003,92.306z"/>
</g>
</svg>