<svg width="106" height="100" viewBox="0 0 106 100" fill="none" xmlns="http://www.w3.org/2000/svg">
<path opacity="0.6" d="M56.9042 99.9999C83.4699 99.9999 105.006 78.4641 105.006 51.8984C105.006 25.3327 83.4699 3.79688 56.9042 3.79688C30.3385 3.79688 8.80273 25.3327 8.80273 51.8984C8.80273 78.4641 30.3385 99.9999 56.9042 99.9999Z" fill="#F0F0F0"/>
<path d="M52.3874 49.2756L47.6628 54.0994L61.1858 67.9064L65.9103 63.0826L52.3874 49.2756Z" fill="#CCCFD2"/>
<path d="M32.2566 59.6312C46.6988 59.6312 58.4065 47.6776 58.4065 32.932C58.4065 18.1863 46.6988 6.23267 32.2566 6.23267C17.8144 6.23267 6.10669 18.1863 6.10669 32.932C6.10669 47.6776 17.8144 59.6312 32.2566 59.6312Z" fill="#E3EBFF" fill-opacity="0.4"/>
<path d="M8.20481 35.0741C8.20481 20.327 19.911 8.37486 34.3547 8.37486C41.0453 8.37486 47.1415 10.94 51.761 15.16C46.9704 9.6896 40.0097 6.23267 32.2566 6.23267C17.8129 6.23267 6.10669 18.1848 6.10669 32.9319C6.10669 40.8479 9.48349 47.9549 14.8413 52.8461C10.7171 48.1296 8.20481 41.9053 8.20481 35.0741Z" fill="#A3A9AF"/>
<path d="M51.3065 14.655C55.1065 19.2888 57.3937 25.2557 57.3937 31.7742C57.3937 46.5213 45.6875 58.4735 31.2438 58.4735C23.7338 58.4735 16.9622 55.2372 12.1897 50.0518C16.9892 55.9084 24.1931 59.6319 32.2524 59.6319C46.696 59.6319 58.4023 47.6798 58.4023 32.9326C58.4023 25.8625 55.7008 19.4359 51.3065 14.655Z" fill="white"/>
<path d="M58.8431 60.8723C58.7441 60.9643 58.645 61.047 58.546 61.1481L58.4919 61.2033C55.4213 64.3384 55.4213 69.4135 58.4919 72.5487L77.6631 92.1226C80.7428 95.2669 85.7494 95.2669 88.8291 92.1226C88.9371 92.0123 89.0272 91.902 89.1172 91.7916L58.8431 60.8723Z" fill="#A3A9AF"/>
<path d="M89.1283 91.7921C89.2274 91.7002 89.3264 91.6175 89.4255 91.5163L89.4795 91.4612C92.5502 88.326 92.5502 83.2509 89.4795 80.1158L70.2993 60.5418C67.2197 57.3975 62.213 57.3975 59.1334 60.5418C59.0253 60.6522 58.9353 60.7625 58.8452 60.8728L89.1283 91.7921Z" fill="#A3A9AF"/>
<path d="M32.2552 0C14.4437 0 0 14.7471 0 32.9328C0 51.1185 14.4437 65.8656 32.2552 65.8656C50.0666 65.8656 64.5103 51.1185 64.5103 32.9328C64.5193 14.7471 50.0756 0 32.2552 0ZM32.2552 59.6321C17.8115 59.6321 6.10525 47.6799 6.10525 32.9328C6.10525 18.1857 17.8115 6.23351 32.2552 6.23351C46.6988 6.23351 58.4051 18.1857 58.4051 32.9328C58.4051 47.6799 46.6988 59.6321 32.2552 59.6321Z" fill="#CCCFD2"/>
<path d="M88.6992 85.1057C88.276 85.5378 87.5916 85.5378 87.1684 85.1057L81.5674 79.3871C81.1442 78.9549 81.1442 78.2562 81.5674 77.8241C81.9906 77.392 82.675 77.392 83.0982 77.8241L88.6992 83.5427C89.1224 83.9748 89.1224 84.6736 88.6992 85.1057Z" fill="#CCCFD2"/>
<path d="M40.8526 30.8426C42.3448 30.8426 43.554 29.6072 43.554 28.0836C43.554 26.5601 42.3448 25.3254 40.8526 25.3254C39.3603 25.3254 38.1511 26.5601 38.1511 28.0836C38.1511 29.6072 39.3603 30.8426 40.8526 30.8426Z" fill="#A3A9AF"/>
<path d="M23.6559 30.8418C25.1479 30.8418 26.3577 29.6066 26.3577 28.0832C26.3577 26.5599 25.1479 25.3254 23.6559 25.3254C22.1639 25.3254 20.9548 26.5599 20.9548 28.0832C20.9548 29.6066 22.1639 30.8418 23.6559 30.8418Z" fill="#A3A9AF"/>
<path d="M28.6042 38.6257C28.9485 38.8056 29.3705 38.6664 29.5467 38.3148C30.0493 37.3119 31.0957 36.6686 32.2498 36.6612C33.4039 36.654 34.459 37.2851 34.9742 38.2822C35.1546 38.6315 35.5783 38.7653 35.9204 38.5811C36.2625 38.3968 36.3936 37.9643 36.2131 37.6149C35.4516 36.141 33.9129 35.2207 32.2411 35.231C30.5695 35.2418 29.0429 36.1803 28.2997 37.6634C28.1235 38.015 28.2598 38.4458 28.6042 38.6257Z" fill="#A1B2DF"/>
</svg>
