<svg width="39" height="39" viewBox="0 0 39 39" fill="none" xmlns="http://www.w3.org/2000/svg">
<path d="M19.4999 19.5723C22.3994 19.5723 24.7499 17.2126 24.7499 14.3018C24.7499 11.3909 22.3994 9.03124 19.4999 9.03124C16.6004 9.03124 14.2499 11.3909 14.2499 14.3018C14.2499 17.2126 16.6004 19.5723 19.4999 19.5723Z" stroke="white" stroke-width="2.048"/>
<path d="M29.9458 33.627C29.6674 28.5471 28.1181 24.8428 19.4997 24.8428C10.8815 24.8428 9.33222 28.5471 9.05371 33.627" stroke="white" stroke-width="2.048" stroke-linecap="round"/>
<path d="M10.75 4.35424C13.324 2.85943 16.3125 2.00391 19.5 2.00391C29.1649 2.00391 37 9.86952 37 19.5723C37 29.2749 29.1649 37.1406 19.5 37.1406C9.83501 37.1406 2 29.2749 2 19.5723C2 16.3724 2.8522 13.3722 4.34119 10.7881" stroke="white" stroke-width="2.048" stroke-linecap="round"/>
</svg>
